<?xml version="1.0" standalone="no"?><!DOCTYPE svg PUBLIC "-//W3C//DTD SVG 1.1//EN" "http://www.w3.org/Graphics/SVG/1.1/DTD/svg11.dtd"><svg t="1570706126043" class="icon" viewBox="0 0 1110 1024" version="1.1" xmlns="http://www.w3.org/2000/svg" p-id="2514" xmlns:xlink="http://www.w3.org/1999/xlink" width="216.796875" height="200"><defs><style type="text/css"></style></defs><path d="M674.112 42.666667l59.605333 163.904L743.936 234.666667l29.888 0L1066.666667 234.666667l0 746.666667L42.666667 981.333333 42.666667 234.666667l292.842667 0 29.888 0 10.218667-28.096L435.221333 42.666667 674.112 42.666667M704 0 405.333333 0l-69.824 192L0 192l0 832 1109.333333 0L1109.333333 192 773.824 192 704 0 704 0z" p-id="2515" fill="#1afa29"></path><path d="M554.666667 396.010667c117.632 0 213.333333 95.701333 213.333333 213.333333s-95.701333 213.333333-213.333333 213.333333-213.333333-95.701333-213.333333-213.333333S437.034667 396.010667 554.666667 396.010667M554.666667 353.344c-141.376 0-256 114.624-256 256s114.624 256 256 256 256-114.624 256-256S696.042667 353.344 554.666667 353.344L554.666667 353.344z" p-id="2516" fill="#1afa29"></path><path d="M849.344 298.666667 977.344 298.666667 849.344 298.666667Z" p-id="2517" fill="#1afa29"></path></svg>