<?xml version="1.0" standalone="no"?><!DOCTYPE svg PUBLIC "-//W3C//DTD SVG 1.1//EN" "http://www.w3.org/Graphics/SVG/1.1/DTD/svg11.dtd"><svg t="1570706275403" class="icon" viewBox="0 0 1024 1024" version="1.1" xmlns="http://www.w3.org/2000/svg" p-id="3451" xmlns:xlink="http://www.w3.org/1999/xlink" width="200" height="200"><defs><style type="text/css"></style></defs><path d="M501.028571 698.514286l175.542858 299.885714c142.628571-47.542857 259.657143-160.914286 314.514285-299.885714h-490.057143z" fill="#707070" p-id="3452"></path><path d="M530.285714 321.828571l-171.885714-296.228571c-146.285714 47.542857-263.314286 157.257143-321.828571 296.228571h493.714285z" fill="#707070" p-id="3453"></path><path d="M640 640h369.371429c10.971429-40.228571 14.628571-84.114286 14.628571-128 0-124.342857-43.885714-241.371429-120.685714-329.142857l-263.314286 457.142857z" fill="#707070" p-id="3454"></path><path d="M592.457143 321.828571l7.314286 10.971429 10.971428 21.942857 65.828572 113.371429 186.514285-325.485715c-91.428571-87.771429-215.771429-138.971429-351.085714-138.971428-32.914286 0-65.828571 3.657143-98.742857 10.971428l179.2 307.2z" fill="#707070" p-id="3455"></path><path d="M387.657143 376.685714h-369.371429c-10.971429 43.885714-18.285714 87.771429-18.285714 135.314286 0 124.342857 43.885714 241.371429 120.685714 329.142857l266.971429-464.457143z" fill="#707070" p-id="3456"></path><path d="M354.742857 552.228571l-193.828571 332.8c91.428571 87.771429 215.771429 138.971429 351.085714 138.971429 36.571429 0 73.142857-3.657143 109.714286-10.971429l-266.971429-460.8z" fill="#707070" p-id="3457"></path></svg>